<svg version="1.1" viewBox="0 0 128 128" xmlns="http://www.w3.org/2000/svg">
    <path d="m16 91-16-63h11l9.1 42q.43 2 .85 3.9.43 1.9.85 3.8.43-1.9.85-3.8.43-2 .85-3.9l9.1-42h11l-16 63zm49 .68q-2.6 0-5.1-.43-2.6-.43-4.9-1.5-2.2-1.2-4.1-3-1.8-1.9-3-4.2-1.2-2.3-1.6-4.8-.43-2.6-.43-5.1v-26q0-2.6.43-5 .43-2.6 1.6-4.9 1.2-2.3 3-4.1 1.9-1.9 4.1-3 2.3-1.2 4.9-1.6 2.6-.43 5.1-.43 2.4 0 4.7.34 2.4.34 4.6 1.3 2.2.85 4.1 2.4 1.9 1.4 3.2 3.5 1.3 2 1.9 4.3.68 2.3.68 4.7v.34h-10v-.17q0-1.7-.68-3.3-.6-1.6-2-2.7-1.3-1.1-3-1.5-1.6-.43-3.3-.43-2 0-3.8.77-1.9.77-3.1 2.3-1.2 1.5-1.6 3.5-.43 1.9-.43 3.8v26q0 2 .43 3.9.43 1.9 1.6 3.4 1.2 1.5 3.1 2.3 1.9.76 3.8.77 1.7 0 3.3-.43 1.7-.43 3-1.5 1.4-1.1 2-2.7.68-1.6.68-3.3v-.17h10v.34q0 2.4-.68 4.7-.6 2.3-1.9 4.4-1.3 2-3.2 3.5-1.9 1.4-4.1 2.4-2.2.85-4.6 1.2-2.3.34-4.7.34zm25 7.9v-8.6h37v8.6z"
          fill="#0f8"
          aria-label="VC_"/>
</svg>
